<?xml version="1.0" encoding="utf-8"?>
<!-- Generator: Adobe Illustrator 19.1.1, SVG Export Plug-In . SVG Version: 6.00 Build 0)  -->
<svg version="1.1" id="Layer_1" xmlns="http://www.w3.org/2000/svg" xmlns:xlink="http://www.w3.org/1999/xlink" x="0px" y="0px"
	 viewBox="0 0 395.3 326" style="enable-background:new 0 0 395.3 326;" xml:space="preserve">
<style type="text/css">
	.st0{fill:#C69C6D;stroke:#000000;stroke-width:2;stroke-miterlimit:10;}
	.st1{fill:#8C6239;stroke:#000000;stroke-width:2;stroke-miterlimit:10;}
	.st2{fill:#FFFFFF;stroke:#000000;stroke-width:2;stroke-miterlimit:10;}
	.st3{fill:#333333;stroke:#000000;stroke-width:3;stroke-miterlimit:5;}
	.st4{fill:#333333;stroke:#000000;stroke-width:2;stroke-miterlimit:10;}
	.st5{fill:#808080;stroke:#000000;stroke-width:2;stroke-miterlimit:10;}
	.st6{fill:#662D91;stroke:#000000;stroke-width:2;stroke-miterlimit:10;}
	.st7{font-family:'Impact';}
	.st8{font-size:92px;}
	.st9{font-size:80px;}
	.st10{fill:none;stroke:#000000;stroke-width:2;stroke-miterlimit:10;}
	.st11{fill:#8C6239;stroke:#000000;stroke-miterlimit:10;}
</style>
<path class="st0" d="M246.9,78.5c0,40.3-23.8,41.5-53.2,41.5s-53.2-1.1-53.2-41.5s23.8-73,53.2-73S246.9,38.1,246.9,78.5z"/>
<path class="st1" d="M229.1,95.3c0,18.1-15.7,18.6-35,18.6s-35-0.5-35-18.6s15.7-32.8,35-32.8S229.1,77.2,229.1,95.3z"/>
<ellipse class="st0" cx="193.7" cy="77.2" rx="6.5" ry="9.5"/>
<path class="st2" d="M159.9,34.9c-4.2,8.7-3.4,18.1,1.6,21c5,2.9,12.5-1.9,16.7-10.6s3.4-18.1-1.6-21S164.1,26.2,159.9,34.9z"/>
<path class="st2" d="M226.2,34.9c4.2,8.7,3.4,18.1-1.6,21c-5,2.9-12.5-1.9-16.7-10.6s-3.4-18.1,1.6-21S222,26.2,226.2,34.9z"/>
<path class="st0" d="M154.3,28c-5.8,10.7-7.9,21-15.6,21c-9.9,0-18-9.2-18-20.5S128.7,8,138.7,8C148.6,8,159.6,18.3,154.3,28z"/>
<path class="st0" d="M230.4,24.6c5.8,10.7,7.9,21,15.6,21c9.9,0,18-9.2,18-20.5S256,4.7,246,4.7C236.1,4.7,225.2,14.9,230.4,24.6z"
	/>
<path class="st1" d="M152.2,31.4c-4,7.8-6,15.5-10.1,14.9c-5.3-0.7-8.8-8.3-7.8-16.9s6.1-15.1,11.3-14.3
	C150.9,15.8,155.8,24.4,152.2,31.4z"/>
<path class="st1" d="M232.8,28c4,7.8,6,15.5,10.1,14.9c5.3-0.7,8.8-8.3,7.8-16.9s-6.1-15.1-11.3-14.3C234,12.4,229.1,21,232.8,28z"
	/>
<path class="st3" d="M372.3,322.9H22.6c-9.7,0-17.6-7.9-17.6-17.6v0c0-3.2,2.6-5.9,5.9-5.9h372.5c3.2,0,5.9,2.6,5.9,5.9v0.6
	C389.3,315.3,381.7,322.9,372.3,322.9z"/>
<rect x="177.3" y="308" width="41.7" height="7"/>
<path class="st4" d="M369.7,299.5H21V137.7c0-9.8,7.9-17.7,17.7-17.7H352c9.8,0,17.7,7.9,17.7,17.7V299.5z"/>
<path class="st5" d="M356.9,292.1H33.8V145.7c0-9.8,7.9-17.7,17.7-17.7h287.8c9.8,0,17.7,7.9,17.7,17.7V292.1z"/>
<text transform="matrix(2 0 0 1 62.6667 206.6667)" class="st6 st7 st8">GET</text>
<text transform="matrix(2 0 0 1 40.6668 280.6664)" class="st6 st7 st9">THAT</text>
<path class="st10" d="M168,39.6c-1.5,3.9-1.9,7.3-1,7.7c1,0.4,2.9-2.5,4.4-6.4c1.5-3.9,1.9-7.3,1-7.7
	C171.5,32.9,169.5,35.7,168,39.6z"/>
<path class="st10" d="M218.1,39.6c1.5,3.9,1.9,7.3,1,7.7c-1,0.4-2.9-2.5-4.4-6.4c-1.5-3.9-1.9-7.3-1-7.7
	C214.6,32.9,216.6,35.7,218.1,39.6z"/>
<ellipse transform="matrix(-0.9999 -1.174820e-002 1.174820e-002 -0.9999 38.1541 312.1418)" class="st0" cx="20" cy="156" rx="15" ry="23.7"/>
<ellipse transform="matrix(0.9999 1.174820e-002 -1.174820e-002 0.9999 1.8362 -0.4003)" class="st11" cx="35" cy="156.1" rx="7" ry="8"/>
<ellipse transform="matrix(0.9999 1.174820e-002 -1.174820e-002 0.9999 2.0462 -0.3144)" class="st11" cx="27.8" cy="174" rx="7" ry="8"/>
<ellipse transform="matrix(0.9999 1.174820e-002 -1.174820e-002 0.9999 1.6122 -0.3573)" class="st11" cx="31.2" cy="137" rx="7" ry="8"/>
<ellipse transform="matrix(0.9999 -1.174820e-002 1.174820e-002 0.9999 -1.8422 4.3225)" class="st0" cx="367" cy="159" rx="15" ry="23.7"/>
<ellipse transform="matrix(-0.9999 1.174820e-002 -1.174820e-002 -0.9999 705.8276 314.037)" class="st11" cx="352" cy="159.1" rx="7" ry="8"/>
<ellipse transform="matrix(-0.9999 1.174820e-002 -1.174820e-002 -0.9999 720.4595 349.7841)" class="st11" cx="359.2" cy="177" rx="7" ry="8"/>
<ellipse transform="matrix(-0.9999 1.174820e-002 -1.174820e-002 -0.9999 713.1566 275.9026)" class="st11" cx="355.8" cy="140" rx="7" ry="8"/>
</svg>
